<svg width="20" height="17" viewBox="0 0 20 17" fill="none" xmlns="http://www.w3.org/2000/svg">
<path d="M0 10.6C0 10.2686 0.268629 10 0.6 10H1.4C1.73137 10 2 10.2686 2 10.6V14.6C2 14.8209 2.17909 15 2.4 15H17.6C17.8209 15 18 14.8209 18 14.6V10.6C18 10.2686 18.2686 10 18.6 10H19.4C19.7314 10 20 10.2686 20 10.6V15C20 16.11 19.11 17 18 17H2C0.9 17 0 16.11 0 15V10.6ZM10.4212 0.413567C10.1875 0.184074 9.81288 0.184414 9.5796 0.414332L5.03394 4.89434C4.71764 5.20608 4.71579 5.71579 5.02981 6.02981L5.31341 6.31341C5.62618 6.62618 6.13341 6.62578 6.44568 6.3125L8.91459 3.83569C8.94606 3.80411 9 3.8264 9 3.87098V12.2C9 12.6418 9.35817 13 9.8 13H10.2C10.6418 13 11 12.6418 11 12.2V3.87071C11 3.82617 11.0539 3.80386 11.0854 3.83536L13.5623 6.31233C13.8755 6.62552 14.3836 6.62463 14.6957 6.31034L14.9831 6.02084C15.2957 5.70609 15.2925 5.19713 14.976 4.88634L10.4212 0.413567Z" fill="#8193A8"/>
</svg>
