<svg width="6" height="22" viewBox="0 0 6 22" fill="none" xmlns="http://www.w3.org/2000/svg">
<path d="M0 18.9808C0 20.4456 1.35 21.644 3 21.644C4.65 21.644 6 20.4456 6 18.9808C6 17.516 4.65 16.3175 3 16.3175C1.35 16.3175 0 17.516 0 18.9808ZM0 3.00107C0 4.46588 1.35 5.66435 3 5.66435C4.65 5.66435 6 4.46588 6 3.00107C6 1.53627 4.65 0.33779 3 0.33779C1.35 0.33779 0 1.53627 0 3.00107ZM0 10.9909C0 12.4557 1.35 13.6542 3 13.6542C4.65 13.6542 6 12.4557 6 10.9909C6 9.52611 4.65 8.32763 3 8.32763C1.35 8.32763 0 9.52611 0 10.9909Z" fill="#567191"/>
</svg>
